<?xml version="1.0" encoding="UTF-8" standalone="no"?>
<!-- Created with Inkscape (http://www.inkscape.org/) -->

<svg
   xmlns:dc="http://purl.org/dc/elements/1.1/"
   xmlns:cc="http://creativecommons.org/ns#"
   xmlns:rdf="http://www.w3.org/1999/02/22-rdf-syntax-ns#"
   xmlns:svg="http://www.w3.org/2000/svg"
   xmlns="http://www.w3.org/2000/svg"
   xmlns:sodipodi="http://sodipodi.sourceforge.net/DTD/sodipodi-0.dtd"
   xmlns:inkscape="http://www.inkscape.org/namespaces/inkscape"
   width="163.625"
   height="179.79594"
   id="svg2"
   version="1.1"
   inkscape:version="0.48.4 r9939"
   sodipodi:docname="knizky.svg">
  <defs
     id="defs4" />
  <sodipodi:namedview
     id="base"
     pagecolor="#ffffff"
     bordercolor="#666666"
     borderopacity="1.0"
     inkscape:pageopacity="0.0"
     inkscape:pageshadow="2"
     inkscape:zoom="3.959798"
     inkscape:cx="75.49063"
     inkscape:cy="89.908267"
     inkscape:document-units="px"
     inkscape:current-layer="layer1"
     showgrid="false"
     inkscape:snap-global="true"
     inkscape:snap-bbox="true"
     inkscape:object-nodes="true"
     inkscape:bbox-nodes="true"
     inkscape:snap-object-midpoints="true"
     inkscape:snap-center="true"
     inkscape:snap-bbox-midpoints="true"
     inkscape:snap-smooth-nodes="true"
     fit-margin-top="0"
     fit-margin-left="0"
     fit-margin-right="0"
     fit-margin-bottom="0"
     inkscape:window-width="1598"
     inkscape:window-height="880"
     inkscape:window-x="0"
     inkscape:window-y="18"
     inkscape:window-maximized="0" />
  <metadata
     id="metadata7">
    <rdf:RDF>
      <cc:Work
         rdf:about="">
        <dc:format>image/svg+xml</dc:format>
        <dc:type
           rdf:resource="http://purl.org/dc/dcmitype/StillImage" />
        <dc:title />
      </cc:Work>
    </rdf:RDF>
  </metadata>
  <g
     inkscape:label="Layer 1"
     inkscape:groupmode="layer"
     id="layer1"
     transform="translate(-600.96875,-1664.3291)">
    <rect
       y="1196.4572"
       x="1970.1677"
       height="55.002556"
       width="55.002556"
       id="rect4035"
       style="fill:#002b36;fill-opacity:1;stroke:#ffffff;stroke-width:4.07260180000000016;stroke-miterlimit:4;stroke-dasharray:none"
       transform="matrix(0.95916005,0.28286391,-0.95916005,0.28286391,0,0)" />
    <path
       style="fill:#002b36;fill-opacity:1;stroke:#ffffff;stroke-width:3;stroke-miterlimit:4;stroke-dasharray:none"
       d="m 689.35515,911.28207 52.75625,15.81951 -1.2e-4,57.61512 -52.75624,-15.81949 z"
       id="path4037"
       inkscape:connector-curvature="0"
       sodipodi:nodetypes="ccccc" />
    <path
       sodipodi:nodetypes="ccccc"
       inkscape:connector-curvature="0"
       id="path4039"
       d="m 794.86765,911.28207 -52.75625,15.81951 1.2e-4,57.61512 52.75623,-15.81949 z"
       style="fill:#002b36;fill-opacity:1;stroke:#ffffff;stroke-width:3;stroke-miterlimit:4;stroke-dasharray:none" />
    <path
       sodipodi:type="arc"
       style="fill:#002b36;stroke:#ffffff;stroke-width:3.58889889999999978;stroke-miterlimit:4;stroke-dasharray:none;fill-opacity:1"
       id="path4041"
       sodipodi:cx="-347.85715"
       sodipodi:cy="-139.20392"
       sodipodi:rx="25.714285"
       sodipodi:ry="25.714285"
       d="m -329.6744,-121.02117 c -10.04205,10.04205 -26.32344,10.04205 -36.36549,0 0,0 0,0 0,0"
       transform="matrix(0.84722221,0,0,0.82475079,1036.5781,1048.4949)"
       sodipodi:start="0.78539816"
       sodipodi:end="2.3561945"
       sodipodi:open="true" />
    <path
       sodipodi:type="arc"
       style="fill:#002b36;stroke:#ffffff;stroke-width:4.03839015999999962;stroke-miterlimit:4;stroke-dasharray:none;fill-opacity:1"
       id="path4043"
       sodipodi:cx="285.35715"
       sodipodi:cy="59.010368"
       sodipodi:rx="3.9285717"
       sodipodi:ry="3.9285717"
       d="m 289.28572,59.010368 c 0,2.169691 -1.75888,3.928572 -3.92857,3.928572 -2.16969,0 -3.92857,-1.758881 -3.92857,-3.928572 0,-2.16969 1.75888,-3.928571 3.92857,-3.928571 2.16969,0 3.92857,1.758881 3.92857,3.928571 z"
       transform="matrix(0.74287028,0,0,0.74287028,510.12846,891.7891)" />
    <path
       transform="matrix(0.74287028,0,0,0.74287028,550.12806,891.78897)"
       d="m 289.28572,59.010368 c 0,2.169691 -1.75888,3.928572 -3.92857,3.928572 -2.16969,0 -3.92857,-1.758881 -3.92857,-3.928572 0,-2.16969 1.75888,-3.928571 3.92857,-3.928571 2.16969,0 3.92857,1.758881 3.92857,3.928571 z"
       sodipodi:ry="3.9285717"
       sodipodi:rx="3.9285717"
       sodipodi:cy="59.010368"
       sodipodi:cx="285.35715"
       id="path4045"
       style="fill:#002b36;stroke:#ffffff;stroke-width:4.03839015999999962;stroke-miterlimit:4;stroke-dasharray:none;fill-opacity:1"
       sodipodi:type="arc" />
    <rect
       transform="matrix(0.92081687,0.38999524,-0.92081687,0.38999524,0,0)"
       style="fill:#002b36;fill-opacity:1;stroke:#ffffff;stroke-width:3.53989171999999996;stroke-miterlimit:4;stroke-dasharray:none"
       id="rect3859"
       width="57.292885"
       height="57.292885"
       x="1135.472"
       y="633.04498" />
    <path
       sodipodi:nodetypes="ccccc"
       inkscape:connector-curvature="0"
       id="path3861"
       d="m 409.88661,712.05704 52.75625,22.34395 -1.2e-4,50.3039 -52.75624,-22.34395 z"
       style="fill:#002b36;fill-opacity:1;stroke:#ffffff;stroke-width:3;stroke-miterlimit:4;stroke-dasharray:none" />
    <path
       style="fill:#002b36;fill-opacity:1;stroke:#ffffff;stroke-width:3;stroke-miterlimit:4;stroke-dasharray:none"
       d="m 515.39911,712.05704 -52.75625,22.34395 1.2e-4,50.3039 52.75623,-22.34395 z"
       id="path3863"
       inkscape:connector-curvature="0"
       sodipodi:nodetypes="ccccc" />
    <path
       style="fill:#002b36;fill-opacity:1;stroke:#ffffff;stroke-width:3;stroke-miterlimit:4;stroke-dasharray:none"
       d="m 392.14849,732.37595 c 15.71576,18.5238 67.80336,25.41556 70.46008,35.54804 l -0.0605,10.43053 -74.08825,-27.86648 0.72689,-13.8435 1.49901,0.75561 0.19606,-2.32031 1.1992,0.66628 z"
       id="path3865"
       inkscape:connector-curvature="0"
       sodipodi:nodetypes="ccccccccc" />
    <path
       sodipodi:nodetypes="ccccccccc"
       inkscape:connector-curvature="0"
       id="path3867"
       d="m 533.06865,732.37595 c -15.71576,18.5238 -67.80336,25.41556 -70.46008,35.54804 l 0.0605,10.43053 74.08825,-27.86648 -0.72689,-13.8435 -1.49901,0.75561 -0.19606,-2.32031 -1.1992,0.66628 z"
       style="fill:#002b36;fill-opacity:1;stroke:#ffffff;stroke-width:3;stroke-miterlimit:4;stroke-dasharray:none" />
    <rect
       transform="scale(-1,1)"
       style="fill:#002b36;fill-opacity:1;stroke:#ffffff;stroke-width:3;stroke-miterlimit:4;stroke-dasharray:none"
       id="rect3869"
       width="13.238614"
       height="91.627869"
       x="-469.26218"
       y="770.07324" />
    <path
       sodipodi:nodetypes="ccccc"
       inkscape:connector-curvature="0"
       id="path3871"
       d="m 382.46351,739.03674 73.82583,31.03653 0,91.79918 -73.82583,-31.03653 z"
       style="fill:#002b36;fill-opacity:1;stroke:#ffffff;stroke-width:3;stroke-miterlimit:4;stroke-dasharray:none" />
    <path
       style="fill:#002b36;fill-opacity:1;stroke:#ffffff;stroke-width:3;stroke-miterlimit:4;stroke-dasharray:none"
       d="m 543.08801,739.03674 -73.82583,31.03653 0,91.79918 73.82583,-31.03653 z"
       id="path3873"
       inkscape:connector-curvature="0"
       sodipodi:nodetypes="ccccc" />
    <path
       sodipodi:open="true"
       sodipodi:end="2.3561945"
       sodipodi:start="0.78539816"
       transform="matrix(0.84722221,0,0,0.82475079,757.10961,849.26983)"
       d="m -329.6744,-121.02117 c -10.04205,10.04205 -26.32344,10.04205 -36.36549,0 0,0 0,0 0,0"
       sodipodi:ry="25.714285"
       sodipodi:rx="25.714285"
       sodipodi:cy="-139.20392"
       sodipodi:cx="-347.85715"
       id="path3883"
       style="fill:#002b36;stroke:#ffffff;stroke-width:3.58889889999999978;stroke-miterlimit:4;stroke-dasharray:none;fill-opacity:1"
       sodipodi:type="arc" />
    <path
       transform="matrix(0.74287028,0,0,0.74287028,230.65992,694.56407)"
       d="m 289.28572,59.010368 c 0,2.169691 -1.75888,3.928572 -3.92857,3.928572 -2.16969,0 -3.92857,-1.758881 -3.92857,-3.928572 0,-2.16969 1.75888,-3.928571 3.92857,-3.928571 2.16969,0 3.92857,1.758881 3.92857,3.928571 z"
       sodipodi:ry="3.9285717"
       sodipodi:rx="3.9285717"
       sodipodi:cy="59.010368"
       sodipodi:cx="285.35715"
       id="path3909"
       style="fill:#002b36;stroke:#ffffff;stroke-width:4.03839015999999962;stroke-miterlimit:4;stroke-dasharray:none;fill-opacity:1"
       sodipodi:type="arc" />
    <path
       sodipodi:type="arc"
       style="fill:#002b36;stroke:#ffffff;stroke-width:4.03839015999999962;stroke-miterlimit:4;stroke-dasharray:none;fill-opacity:1"
       id="path3911"
       sodipodi:cx="285.35715"
       sodipodi:cy="59.010368"
       sodipodi:rx="3.9285717"
       sodipodi:ry="3.9285717"
       d="m 289.28572,59.010368 c 0,2.169691 -1.75888,3.928572 -3.92857,3.928572 -2.16969,0 -3.92857,-1.758881 -3.92857,-3.928572 0,-2.16969 1.75888,-3.928571 3.92857,-3.928571 2.16969,0 3.92857,1.758881 3.92857,3.928571 z"
       transform="matrix(0.74287028,0,0,0.74287028,270.65952,694.56394)" />
    <rect
       transform="matrix(0.95916005,0.28286391,-0.95916005,0.28286391,0,0)"
       style="fill:#002b36;fill-opacity:1;stroke:#ffffff;stroke-width:4.07260180000000016;stroke-miterlimit:4;stroke-dasharray:none"
       id="rect3859-9"
       width="55.002556"
       height="55.002556"
       x="1612.9973"
       y="846.57428" />
    <path
       sodipodi:nodetypes="ccccc"
       inkscape:connector-curvature="0"
       id="path3861-9"
       d="m 682.36531,711.28207 52.75625,15.81951 -1.2e-4,57.61512 -52.75624,-15.81949 z"
       style="fill:#002b36;fill-opacity:1;stroke:#ffffff;stroke-width:3;stroke-miterlimit:4;stroke-dasharray:none" />
    <path
       style="fill:#002b36;fill-opacity:1;stroke:#ffffff;stroke-width:3;stroke-miterlimit:4;stroke-dasharray:none"
       d="m 787.87781,711.28207 -52.75625,15.81951 1.2e-4,57.61512 52.75623,-15.81949 z"
       id="path3863-0"
       inkscape:connector-curvature="0"
       sodipodi:nodetypes="ccccc" />
    <path
       style="fill:#002b36;fill-opacity:1;stroke:#ffffff;stroke-width:3;stroke-miterlimit:4;stroke-dasharray:none"
       d="m 664.62719,739.60098 c 13.03719,17.54166 67.80336,17.41556 70.46008,27.54804 l -0.0605,10.43053 -74.08825,-27.86648 0.72689,-5.8435 1.49901,0.75561 0.19606,-2.32031 1.1992,0.66628 z"
       id="path3865-2"
       inkscape:connector-curvature="0"
       sodipodi:nodetypes="ccccccccc" />
    <path
       sodipodi:nodetypes="ccccccccc"
       inkscape:connector-curvature="0"
       id="path3913"
       d="m 805.54735,739.60098 c -13.03719,17.54166 -67.80336,17.41556 -70.46008,27.54804 l 0.0605,10.43053 74.08825,-27.86648 -0.72689,-5.8435 -1.49901,0.75561 -0.19606,-2.32031 -1.1992,0.66628 z"
       style="fill:#002b36;fill-opacity:1;stroke:#ffffff;stroke-width:3;stroke-miterlimit:4;stroke-dasharray:none" />
    <rect
       transform="scale(-1,1)"
       style="fill:#002b36;fill-opacity:1;stroke:#ffffff;stroke-width:3;stroke-miterlimit:4;stroke-dasharray:none"
       id="rect3869-9"
       width="13.238614"
       height="91.627869"
       x="-741.74091"
       y="769.29828" />
    <path
       sodipodi:nodetypes="ccccc"
       inkscape:connector-curvature="0"
       id="path3871-8"
       d="m 654.94221,746.26177 73.82583,23.03653 0,91.7992 -73.82583,-23.0365 z"
       style="fill:#002b36;fill-opacity:1;stroke:#ffffff;stroke-width:3;stroke-miterlimit:4;stroke-dasharray:none" />
    <path
       style="fill:#002b36;fill-opacity:1;stroke:#ffffff;stroke-width:3;stroke-miterlimit:4;stroke-dasharray:none"
       d="m 815.56671,746.26177 -73.82583,23.03653 0,91.7992 73.82583,-23.0365 z"
       id="path3873-9"
       inkscape:connector-curvature="0"
       sodipodi:nodetypes="ccccc" />
    <path
       sodipodi:open="true"
       sodipodi:end="2.3561945"
       sodipodi:start="0.78539816"
       transform="matrix(0.84722221,0,0,0.82475079,1029.5883,848.4949)"
       d="m -329.6744,-121.02117 c -10.04205,10.04205 -26.32344,10.04205 -36.36549,0 0,0 0,0 0,0"
       sodipodi:ry="25.714285"
       sodipodi:rx="25.714285"
       sodipodi:cy="-139.20392"
       sodipodi:cx="-347.85715"
       id="path3883-2"
       style="fill:#002b36;stroke:#ffffff;stroke-width:3.58889889999999978;stroke-miterlimit:4;stroke-dasharray:none;fill-opacity:1"
       sodipodi:type="arc" />
    <path
       transform="matrix(0.74287028,0,0,0.74287028,503.13862,691.7891)"
       d="m 289.28572,59.010368 c 0,2.169691 -1.75888,3.928572 -3.92857,3.928572 -2.16969,0 -3.92857,-1.758881 -3.92857,-3.928572 0,-2.16969 1.75888,-3.928571 3.92857,-3.928571 2.16969,0 3.92857,1.758881 3.92857,3.928571 z"
       sodipodi:ry="3.9285717"
       sodipodi:rx="3.9285717"
       sodipodi:cy="59.010368"
       sodipodi:cx="285.35715"
       id="path3909-3"
       style="fill:#002b36;stroke:#ffffff;stroke-width:4.03839015999999962;stroke-miterlimit:4;stroke-dasharray:none;fill-opacity:1"
       sodipodi:type="arc" />
    <path
       sodipodi:type="arc"
       style="fill:#002b36;stroke:#ffffff;stroke-width:4.03839015999999962;stroke-miterlimit:4;stroke-dasharray:none;fill-opacity:1"
       id="path3911-4"
       sodipodi:cx="285.35715"
       sodipodi:cy="59.010368"
       sodipodi:rx="3.9285717"
       sodipodi:ry="3.9285717"
       d="m 289.28572,59.010368 c 0,2.169691 -1.75888,3.928572 -3.92857,3.928572 -2.16969,0 -3.92857,-1.758881 -3.92857,-3.928572 0,-2.16969 1.75888,-3.928571 3.92857,-3.928571 2.16969,0 3.92857,1.758881 3.92857,3.928571 z"
       transform="matrix(0.74287028,0,0,0.74287028,543.13822,691.78897)" />
    <rect
       y="889.45856"
       x="1391.8856"
       height="57.292885"
       width="57.292885"
       id="rect3985"
       style="fill:#002b36;fill-opacity:1;stroke:#ffffff;stroke-width:3.53989171999999996;stroke-miterlimit:4;stroke-dasharray:none"
       transform="matrix(0.92081687,0.38999524,-0.92081687,0.38999524,0,0)" />
    <path
       style="fill:#002b36;fill-opacity:1;stroke:#ffffff;stroke-width:3;stroke-miterlimit:4;stroke-dasharray:none"
       d="m 409.88661,912.05704 52.75625,22.34395 -1.2e-4,50.3039 -52.75624,-22.34395 z"
       id="path3987"
       inkscape:connector-curvature="0"
       sodipodi:nodetypes="ccccc" />
    <path
       sodipodi:nodetypes="ccccc"
       inkscape:connector-curvature="0"
       id="path3989"
       d="m 515.39911,912.05704 -52.75625,22.34395 1.2e-4,50.3039 52.75623,-22.34395 z"
       style="fill:#002b36;fill-opacity:1;stroke:#ffffff;stroke-width:3;stroke-miterlimit:4;stroke-dasharray:none" />
    <path
       sodipodi:nodetypes="ccccccccc"
       inkscape:connector-curvature="0"
       id="path3991"
       d="m 392.14849,932.37595 c 15.71576,18.5238 67.80336,25.41556 70.46008,35.54804 l -0.0605,10.43053 -74.08825,-27.86648 0.72689,-13.8435 1.49901,0.75561 0.19606,-2.32031 1.1992,0.66628 z"
       style="fill:#002b36;fill-opacity:1;stroke:#ffffff;stroke-width:3;stroke-miterlimit:4;stroke-dasharray:none" />
    <path
       style="fill:#002b36;fill-opacity:1;stroke:#ffffff;stroke-width:3;stroke-miterlimit:4;stroke-dasharray:none"
       d="m 533.06865,932.37595 c -15.71576,18.5238 -67.80336,25.41556 -70.46008,35.54804 l 0.0605,10.43053 74.08825,-27.86648 -0.72689,-13.8435 -1.49901,0.75561 -0.19606,-2.32031 -1.1992,0.66628 z"
       id="path3993"
       inkscape:connector-curvature="0"
       sodipodi:nodetypes="ccccccccc" />
    <rect
       y="970.07324"
       x="-469.26218"
       height="91.627869"
       width="13.238614"
       id="rect3995"
       style="fill:#002b36;fill-opacity:1;stroke:#ffffff;stroke-width:3;stroke-miterlimit:4;stroke-dasharray:none"
       transform="scale(-1,1)" />
    <path
       style="fill:#002b36;fill-opacity:1;stroke:#ffffff;stroke-width:3;stroke-miterlimit:4;stroke-dasharray:none"
       d="m 382.46351,939.03674 73.82583,31.03653 0,91.79913 -73.82583,-31.0365 z"
       id="path3997"
       inkscape:connector-curvature="0"
       sodipodi:nodetypes="ccccc" />
    <path
       sodipodi:nodetypes="ccccc"
       inkscape:connector-curvature="0"
       id="path3999"
       d="m 543.08801,939.03674 -73.82583,31.03653 0,91.79913 73.82583,-31.0365 z"
       style="fill:#002b36;fill-opacity:1;stroke:#ffffff;stroke-width:3;stroke-miterlimit:4;stroke-dasharray:none" />
    <path
       sodipodi:type="arc"
       style="fill:#002b36;stroke:#ffffff;stroke-width:3.58889889999999978;stroke-miterlimit:4;stroke-dasharray:none;fill-opacity:1"
       id="path4001"
       sodipodi:cx="-347.85715"
       sodipodi:cy="-139.20392"
       sodipodi:rx="25.714285"
       sodipodi:ry="25.714285"
       d="m -329.6744,-121.02117 c -10.04205,10.04205 -26.32344,10.04205 -36.36549,0 0,0 0,0 0,0"
       transform="matrix(0.84722221,0,0,0.82475079,757.10961,1049.2698)"
       sodipodi:start="0.78539816"
       sodipodi:end="2.3561945"
       sodipodi:open="true" />
    <path
       style="fill:#002b36;stroke:#ffffff;stroke-width:3;stroke-linecap:butt;stroke-linejoin:miter;stroke-miterlimit:4;stroke-opacity:1;stroke-dasharray:none;fill-opacity:1"
       d="m 438.82533,941.79622 c 0,0 6.42533,-15.27855 11.63505,0"
       id="path4007"
       inkscape:connector-curvature="0"
       sodipodi:nodetypes="cc" />
    <path
       sodipodi:nodetypes="cc"
       inkscape:connector-curvature="0"
       id="path4011"
       d="m 486.46038,941.79622 c 0,0 -6.42533,-15.27855 -11.63505,0"
       style="fill:#002b36;stroke:#ffffff;stroke-width:3;stroke-linecap:butt;stroke-linejoin:miter;stroke-miterlimit:4;stroke-opacity:1;stroke-dasharray:none;fill-opacity:1" />
    <path
       sodipodi:nodetypes="ccccccccc"
       inkscape:connector-curvature="0"
       id="path4019"
       d="m 672.14849,932.37595 c 15.71576,18.5238 67.80336,25.41556 70.46008,35.54804 l -0.0605,10.43053 -74.08825,-27.86648 0.72689,-13.8435 1.49901,0.75561 0.19606,-2.32031 1.1992,0.66628 z"
       style="fill:#002b36;fill-opacity:1;stroke:#ffffff;stroke-width:3;stroke-miterlimit:4;stroke-dasharray:none" />
    <path
       style="fill:#002b36;fill-opacity:1;stroke:#ffffff;stroke-width:3;stroke-miterlimit:4;stroke-dasharray:none"
       d="m 813.06865,932.37595 c -15.71576,18.5238 -67.80336,25.41556 -70.46008,35.54804 l 0.0605,10.43053 74.08825,-27.86648 -0.72689,-13.8435 -1.49901,0.75561 -0.19606,-2.32031 -1.1992,0.66628 z"
       id="path4021"
       inkscape:connector-curvature="0"
       sodipodi:nodetypes="ccccccccc" />
    <rect
       y="970.07324"
       x="-749.26221"
       height="91.627869"
       width="13.238614"
       id="rect4023"
       style="fill:#002b36;fill-opacity:1;stroke:#ffffff;stroke-width:3;stroke-miterlimit:4;stroke-dasharray:none"
       transform="scale(-1,1)" />
    <path
       style="fill:#002b36;fill-opacity:1;stroke:#ffffff;stroke-width:3;stroke-miterlimit:4;stroke-dasharray:none"
       d="m 662.46351,939.03674 73.82583,31.03653 0,91.79913 -73.82583,-31.0365 z"
       id="path4025"
       inkscape:connector-curvature="0"
       sodipodi:nodetypes="ccccc" />
    <path
       sodipodi:nodetypes="ccccc"
       inkscape:connector-curvature="0"
       id="path4027"
       d="m 823.08801,939.03674 -73.82583,31.03653 0,91.79913 73.82583,-31.0365 z"
       style="fill:#002b36;fill-opacity:1;stroke:#ffffff;stroke-width:3;stroke-miterlimit:4;stroke-dasharray:none" />
    <rect
       transform="matrix(-0.92081687,0.38999524,0.92081687,0.38999524,0,0)"
       style="fill:#002b36;fill-opacity:1;stroke:#ffffff;stroke-width:3.53989171999999996;stroke-miterlimit:4;stroke-dasharray:none"
       id="rect4071"
       width="57.292885"
       height="57.292885"
       x="1051.9099"
       y="1793.5427" />
    <path
       sodipodi:nodetypes="ccccc"
       inkscape:connector-curvature="0"
       id="path4073"
       d="m 735.66489,1132.057 -52.75625,22.344 1.2e-4,50.3039 52.75624,-22.344 z"
       style="fill:#002b36;fill-opacity:1;stroke:#ffffff;stroke-width:3;stroke-miterlimit:4;stroke-dasharray:none" />
    <path
       style="fill:#002b36;fill-opacity:1;stroke:#ffffff;stroke-width:3;stroke-miterlimit:4;stroke-dasharray:none"
       d="m 630.15239,1132.057 52.75625,22.344 -1.2e-4,50.3039 -52.75623,-22.344 z"
       id="path4075"
       inkscape:connector-curvature="0"
       sodipodi:nodetypes="ccccc" />
    <path
       style="fill:#002b36;fill-opacity:1;stroke:#ffffff;stroke-width:3;stroke-miterlimit:4;stroke-dasharray:none"
       d="m 753.40301,1152.3759 c -15.71576,18.5239 -67.80336,25.4156 -70.46008,35.5481 l 0.0605,10.4305 74.08825,-27.8665 -0.72689,-13.8435 -1.49901,0.7556 -0.19606,-2.3203 -1.1992,0.6663 z"
       id="path4077"
       inkscape:connector-curvature="0"
       sodipodi:nodetypes="ccccccccc" />
    <path
       sodipodi:nodetypes="ccccccccc"
       inkscape:connector-curvature="0"
       id="path4079"
       d="m 612.48285,1152.3759 c 15.71576,18.5239 67.80336,25.4156 70.46008,35.5481 l -0.0605,10.4305 -74.08825,-27.8665 0.72689,-13.8435 1.49901,0.7556 0.19606,-2.3203 1.1992,0.6663 z"
       style="fill:#002b36;fill-opacity:1;stroke:#ffffff;stroke-width:3;stroke-miterlimit:4;stroke-dasharray:none" />
    <rect
       style="fill:#002b36;fill-opacity:1;stroke:#ffffff;stroke-width:3;stroke-miterlimit:4;stroke-dasharray:none"
       id="rect4081"
       width="13.238614"
       height="91.627869"
       x="676.28931"
       y="1190.0732" />
    <path
       sodipodi:nodetypes="ccccc"
       inkscape:connector-curvature="0"
       id="path4083"
       d="m 763.08799,1159.0367 -73.82583,31.0366 0,91.7991 73.82583,-31.0365 z"
       style="fill:#002b36;fill-opacity:1;stroke:#ffffff;stroke-width:3;stroke-miterlimit:4;stroke-dasharray:none" />
    <path
       style="fill:#002b36;fill-opacity:1;stroke:#ffffff;stroke-width:3;stroke-miterlimit:4;stroke-dasharray:none"
       d="m 602.46349,1159.0367 73.82583,31.0366 0,91.7991 -73.82583,-31.0365 z"
       id="path4085"
       inkscape:connector-curvature="0"
       sodipodi:nodetypes="ccccc" />
    <path
       transform="matrix(-0.74287028,0,0,0.88750575,857.98095,1107.2649)"
       d="m 289.28572,59.010368 c 0,2.169691 -1.75888,3.928572 -3.92857,3.928572 -2.16969,0 -3.92857,-1.758881 -3.92857,-3.928572 0,-2.16969 1.75888,-3.928571 3.92857,-3.928571 2.16969,0 3.92857,1.758881 3.92857,3.928571 z"
       sodipodi:ry="3.9285717"
       sodipodi:rx="3.9285717"
       sodipodi:cy="59.010368"
       sodipodi:cx="285.35715"
       id="path4087"
       style="fill:#002b36;stroke:#ffffff;stroke-width:3.69470000000000010;stroke-miterlimit:4;stroke-dasharray:none;fill-opacity:1"
       sodipodi:type="arc" />
    <rect
       y="2145.28"
       x="1664.2856"
       height="57.292885"
       width="57.292885"
       id="rect4117"
       style="fill:#002b36;fill-opacity:1;stroke:#ffffff;stroke-width:3.53989171999999996;stroke-miterlimit:4;stroke-dasharray:none"
       transform="matrix(-0.92081687,0.38999524,0.92081687,0.38999524,0,0)" />
    <path
       style="fill:#002b36;fill-opacity:1;stroke:#ffffff;stroke-width:3;stroke-miterlimit:4;stroke-dasharray:none"
       d="m 495.66491,1508.057 -52.75625,22.344 1.2e-4,50.3039 52.75624,-22.344 z"
       id="path4119"
       inkscape:connector-curvature="0"
       sodipodi:nodetypes="ccccc" />
    <path
       sodipodi:nodetypes="ccccc"
       inkscape:connector-curvature="0"
       id="path4121"
       d="m 390.15241,1508.057 52.75625,22.344 -1.2e-4,50.3039 -52.75623,-22.344 z"
       style="fill:#002b36;fill-opacity:1;stroke:#ffffff;stroke-width:3;stroke-miterlimit:4;stroke-dasharray:none" />
    <path
       sodipodi:nodetypes="ccccccccc"
       inkscape:connector-curvature="0"
       id="path4123"
       d="m 513.40303,1532.3759 c -15.71576,18.5239 -67.80336,25.4156 -70.46008,35.5481 l 0.0605,10.4305 74.08825,-27.8665 -0.72689,-13.8435 -1.49901,0.7556 -0.19606,-2.3203 -1.1992,0.6663 z"
       style="fill:#002b36;fill-opacity:1;stroke:#ffffff;stroke-width:3;stroke-miterlimit:4;stroke-dasharray:none" />
    <path
       style="fill:#002b36;fill-opacity:1;stroke:#ffffff;stroke-width:3;stroke-miterlimit:4;stroke-dasharray:none"
       d="m 372.48287,1532.3759 c 15.71576,18.5239 67.80336,25.4156 70.46008,35.5481 l -0.0605,10.4305 -74.08825,-27.8665 0.72689,-13.8435 1.49901,0.7556 0.19606,-2.3203 1.1992,0.6663 z"
       id="path4125"
       inkscape:connector-curvature="0"
       sodipodi:nodetypes="ccccccccc" />
    <rect
       y="1570.0732"
       x="436.28931"
       height="91.627869"
       width="13.238614"
       id="rect4127"
       style="fill:#002b36;fill-opacity:1;stroke:#ffffff;stroke-width:3;stroke-miterlimit:4;stroke-dasharray:none" />
    <path
       style="fill:#002b36;fill-opacity:1;stroke:#ffffff;stroke-width:3;stroke-miterlimit:4;stroke-dasharray:none"
       d="m 523.08801,1539.0367 -73.82583,31.0366 0,91.7991 73.82583,-31.0365 z"
       id="path4129"
       inkscape:connector-curvature="0"
       sodipodi:nodetypes="ccccc" />
    <path
       sodipodi:nodetypes="ccccc"
       inkscape:connector-curvature="0"
       id="path4131"
       d="m 362.46351,1539.0367 73.82583,31.0366 0,91.7991 -73.82583,-31.0365 z"
       style="fill:#002b36;fill-opacity:1;stroke:#ffffff;stroke-width:3;stroke-miterlimit:4;stroke-dasharray:none" />
    <path
       sodipodi:type="arc"
       style="fill:#002b36;stroke:#ffffff;stroke-width:4.03839015999999962;stroke-miterlimit:4;stroke-dasharray:none;fill-opacity:1"
       id="path4133"
       sodipodi:cx="285.35715"
       sodipodi:cy="59.010368"
       sodipodi:rx="3.9285717"
       sodipodi:ry="3.9285717"
       d="m 289.28572,59.010368 c 0,2.169691 -1.75888,3.928572 -3.92857,3.928572 -2.16969,0 -3.92857,-1.758881 -3.92857,-3.928572 0,-2.16969 1.75888,-3.928571 3.92857,-3.928571 2.16969,0 3.92857,1.758881 3.92857,3.928571 z"
       transform="matrix(-0.74287028,0,0,0.74287028,619.09573,1482.1128)" />
    <path
       transform="matrix(-0.74287028,0,0,0.74287028,640.23898,1490.5411)"
       d="m 289.28572,59.010368 c 0,2.169691 -1.75888,3.928572 -3.92857,3.928572 -2.16969,0 -3.92857,-1.758881 -3.92857,-3.928572 0,-2.16969 1.75888,-3.928571 3.92857,-3.928571 2.16969,0 3.92857,1.758881 3.92857,3.928571 z"
       sodipodi:ry="3.9285717"
       sodipodi:rx="3.9285717"
       sodipodi:cy="59.010368"
       sodipodi:cx="285.35715"
       id="path4135"
       style="fill:#002b36;stroke:#ffffff;stroke-width:4.03839015999999962;stroke-miterlimit:4;stroke-dasharray:none;fill-opacity:1"
       sodipodi:type="arc" />
    <path
       sodipodi:open="true"
       sodipodi:end="2.0194118"
       sodipodi:start="0.62513482"
       transform="matrix(-0.84722221,-0.13498995,0,0.82475079,125.24634,1594.9967)"
       d="m -327.00584,-124.15575 c -7.2915,10.10338 -20.77727,13.52565 -32.00407,8.12165"
       sodipodi:ry="25.714285"
       sodipodi:rx="25.714285"
       sodipodi:cy="-139.20392"
       sodipodi:cx="-347.85715"
       id="path4137"
       style="fill:#002b36;stroke:#ffffff;stroke-width:3.58889889999999978;stroke-miterlimit:4;stroke-dasharray:none;fill-opacity:1"
       sodipodi:type="arc" />
    <rect
       y="878.29468"
       x="1967.1572"
       height="57.292885"
       width="57.292885"
       id="rect3098"
       style="fill:#002b36;fill-opacity:1;stroke:#ffffff;stroke-width:3.53989171999999996;stroke-miterlimit:4;stroke-dasharray:none"
       transform="matrix(0.92081687,0.38999524,-0.92081687,0.38999524,0,0)" />
    <path
       style="fill:#002b36;fill-opacity:1;stroke:#ffffff;stroke-width:3;stroke-miterlimit:4;stroke-dasharray:none"
       d="m 949.88661,1132.057 52.75629,22.344 -2e-4,50.3039 -52.7562,-22.344 z"
       id="path3100"
       inkscape:connector-curvature="0"
       sodipodi:nodetypes="ccccc" />
    <path
       sodipodi:nodetypes="ccccc"
       inkscape:connector-curvature="0"
       id="path3102"
       d="m 1055.3991,1132.057 -52.7562,22.344 10e-5,50.3039 52.7562,-22.344 z"
       style="fill:#002b36;fill-opacity:1;stroke:#ffffff;stroke-width:3;stroke-miterlimit:4;stroke-dasharray:none" />
    <path
       sodipodi:nodetypes="ccccccccc"
       inkscape:connector-curvature="0"
       id="path3104"
       d="m 932.14849,1152.3759 c 15.71576,18.5239 67.80336,25.4156 70.46011,35.5481 l -0.061,10.4305 -74.08828,-27.8665 0.72689,-13.8435 1.49901,0.7556 0.19606,-2.3203 1.1992,0.6663 z"
       style="fill:#002b36;fill-opacity:1;stroke:#ffffff;stroke-width:3;stroke-miterlimit:4;stroke-dasharray:none" />
    <path
       style="fill:#002b36;fill-opacity:1;stroke:#ffffff;stroke-width:3;stroke-miterlimit:4;stroke-dasharray:none"
       d="m 1073.0687,1152.3759 c -15.7158,18.5239 -67.8034,25.4156 -70.4601,35.5481 l 0.06,10.4305 74.0882,-27.8665 -0.7269,-13.8435 -1.499,0.7556 -0.196,-2.3203 -1.1992,0.6663 z"
       id="path3106"
       inkscape:connector-curvature="0"
       sodipodi:nodetypes="ccccccccc" />
    <rect
       y="1190.0732"
       x="-1009.2622"
       height="91.627869"
       width="13.238614"
       id="rect3108"
       style="fill:#002b36;fill-opacity:1;stroke:#ffffff;stroke-width:3;stroke-miterlimit:4;stroke-dasharray:none"
       transform="scale(-1,1)" />
    <path
       style="fill:#002b36;fill-opacity:1;stroke:#ffffff;stroke-width:3;stroke-miterlimit:4;stroke-dasharray:none"
       d="m 922.46351,1159.0367 73.82583,31.0366 0,91.7991 -73.82583,-31.0365 z"
       id="path3110"
       inkscape:connector-curvature="0"
       sodipodi:nodetypes="ccccc" />
    <path
       sodipodi:nodetypes="ccccc"
       inkscape:connector-curvature="0"
       id="path3112"
       d="m 1083.088,1159.0367 -73.8258,31.0366 0,91.7991 73.8258,-31.0365 z"
       style="fill:#002b36;fill-opacity:1;stroke:#ffffff;stroke-width:3;stroke-miterlimit:4;stroke-dasharray:none" />
    <path
       sodipodi:type="arc"
       style="fill:#002b36;stroke:#ffffff;stroke-width:4.03839015999999962;stroke-miterlimit:4;stroke-dasharray:none;fill-opacity:1"
       id="path3114"
       sodipodi:cx="285.35715"
       sodipodi:cy="59.010368"
       sodipodi:rx="3.9285717"
       sodipodi:ry="3.9285717"
       d="m 289.28572,59.010368 c 0,2.169691 -1.75888,3.928572 -3.92857,3.928572 -2.16969,0 -3.92857,-1.758881 -3.92857,-3.928572 0,-2.16969 1.75888,-3.928571 3.92857,-3.928571 2.16969,0 3.92857,1.758881 3.92857,3.928571 z"
       transform="matrix(0.74287028,0,0,0.74287028,827.57055,1104.3681)" />
    <path
       transform="matrix(0.74287028,0,0,0.74287028,806.4273,1112.7964)"
       d="m 289.28572,59.010368 c 0,2.169691 -1.75888,3.928572 -3.92857,3.928572 -2.16969,0 -3.92857,-1.758881 -3.92857,-3.928572 0,-2.16969 1.75888,-3.928571 3.92857,-3.928571 2.16969,0 3.92857,1.758881 3.92857,3.928571 z"
       sodipodi:ry="3.9285717"
       sodipodi:rx="3.9285717"
       sodipodi:cy="59.010368"
       sodipodi:cx="285.35715"
       id="path3116"
       style="fill:#002b36;stroke:#ffffff;stroke-width:4.03839015999999962;stroke-miterlimit:4;stroke-dasharray:none;fill-opacity:1"
       sodipodi:type="arc" />
    <path
       sodipodi:open="true"
       sodipodi:end="2.0194118"
       sodipodi:start="0.62513482"
       transform="matrix(0.84722221,-0.13498995,0,0.82475079,1321.1674,1215.757)"
       d="m -327.00584,-124.15575 c -7.2915,10.10338 -20.77727,13.52565 -32.00407,8.12165"
       sodipodi:ry="25.714285"
       sodipodi:rx="25.714285"
       sodipodi:cy="-139.20392"
       sodipodi:cx="-347.85715"
       id="path3118"
       style="fill:#002b36;stroke:#ffffff;stroke-width:3.58889889999999978;stroke-miterlimit:4;stroke-dasharray:none;fill-opacity:1"
       sodipodi:type="arc" />
    <path
       sodipodi:type="arc"
       style="fill:#002b36;stroke:none;fill-opacity:1"
       id="path3168"
       sodipodi:cx="285.35715"
       sodipodi:cy="59.010368"
       sodipodi:rx="3.9285717"
       sodipodi:ry="3.9285717"
       d="m 289.28572,59.010368 c 0,2.169691 -1.75888,3.928572 -3.92857,3.928572 -2.16969,0 -3.92857,-1.758881 -3.92857,-3.928572 0,-2.16969 1.75888,-3.928571 3.92857,-3.928571 2.16969,0 3.92857,1.758881 3.92857,3.928571 z"
       transform="matrix(-0.5660936,0,0,0.5660936,807.20858,1127.5397)" />
    <path
       sodipodi:type="arc"
       style="fill:#002b36;stroke:#ffffff;stroke-width:3.62956190000000012;stroke-miterlimit:4;stroke-dasharray:none;fill-opacity:1"
       id="path3170"
       sodipodi:cx="285.35715"
       sodipodi:cy="59.010368"
       sodipodi:rx="3.9285717"
       sodipodi:ry="3.9285717"
       d="m 289.28572,59.010368 c 0,2.169691 -1.75888,3.928572 -3.92857,3.928572 -2.16969,0 -3.92857,-1.758881 -3.92857,-3.928572 0,-2.16969 1.75888,-3.928571 3.92857,-3.928571 2.16969,0 3.92857,1.758881 3.92857,3.928571 z"
       transform="matrix(-0.74287028,0,0,0.91964696,877.98095,1113.242)" />
    <path
       transform="matrix(-0.5660936,0,0,0.5660936,827.08232,1135.4135)"
       d="m 289.28572,59.010368 c 0,2.169691 -1.75888,3.928572 -3.92857,3.928572 -2.16969,0 -3.92857,-1.758881 -3.92857,-3.928572 0,-2.16969 1.75888,-3.928571 3.92857,-3.928571 2.16969,0 3.92857,1.758881 3.92857,3.928571 z"
       sodipodi:ry="3.9285717"
       sodipodi:rx="3.9285717"
       sodipodi:cy="59.010368"
       sodipodi:cx="285.35715"
       id="path3172"
       style="fill:#002b36;stroke:none;fill-opacity:1"
       sodipodi:type="arc" />
    <rect
       transform="matrix(-0.92081687,0.38999524,0.92081687,0.38999524,0,0)"
       style="fill:#002b36;fill-opacity:1;stroke:#ffffff;stroke-width:3.53989171999999996;stroke-miterlimit:4;stroke-dasharray:none"
       id="rect3248"
       width="57.292885"
       height="57.292885"
       x="1764.738"
       y="2506.3706" />
    <path
       sodipodi:nodetypes="ccccc"
       inkscape:connector-curvature="0"
       id="path3250"
       d="m 735.66491,1688.057 -52.75625,22.344 1.2e-4,50.3039 52.75624,-22.344 z"
       style="fill:#002b36;fill-opacity:1;stroke:#ffffff;stroke-width:3;stroke-miterlimit:4;stroke-dasharray:none" />
    <path
       style="fill:#002b36;fill-opacity:1;stroke:#ffffff;stroke-width:3;stroke-miterlimit:4;stroke-dasharray:none"
       d="m 630.15241,1688.057 52.75625,22.344 -1.2e-4,50.3039 -52.75623,-22.344 z"
       id="path3252"
       inkscape:connector-curvature="0"
       sodipodi:nodetypes="ccccc" />
    <path
       style="fill:#002b36;fill-opacity:1;stroke:#ffffff;stroke-width:3;stroke-miterlimit:4;stroke-dasharray:none"
       d="m 753.40303,1712.3759 c -15.71576,18.5239 -67.80336,25.4156 -70.46008,35.5481 l 0.0605,10.4305 74.08825,-27.8665 -0.72689,-13.8435 -1.49901,0.7556 -0.19606,-2.3203 -1.1992,0.6663 z"
       id="path3254"
       inkscape:connector-curvature="0"
       sodipodi:nodetypes="ccccccccc" />
    <path
       sodipodi:nodetypes="ccccccccc"
       inkscape:connector-curvature="0"
       id="path3256"
       d="m 612.48287,1712.3759 c 15.71576,18.5239 67.80336,25.4156 70.46008,35.5481 l -0.0605,10.4305 -74.08825,-27.8665 0.72689,-13.8435 1.49901,0.7556 0.19606,-2.3203 1.1992,0.6663 z"
       style="fill:#002b36;fill-opacity:1;stroke:#ffffff;stroke-width:3;stroke-miterlimit:4;stroke-dasharray:none" />
    <rect
       style="fill:#002b36;fill-opacity:1;stroke:#ffffff;stroke-width:3;stroke-miterlimit:4;stroke-dasharray:none"
       id="rect3258"
       width="13.238614"
       height="91.627869"
       x="676.28931"
       y="1750.0732" />
    <path
       sodipodi:nodetypes="ccccc"
       inkscape:connector-curvature="0"
       id="path3260"
       d="m 763.08801,1719.0367 -73.82583,31.0366 0,91.7991 73.82583,-31.0365 z"
       style="fill:#002b36;fill-opacity:1;stroke:#ffffff;stroke-width:3;stroke-miterlimit:4;stroke-dasharray:none" />
    <path
       style="fill:#002b36;fill-opacity:1;stroke:#ffffff;stroke-width:3;stroke-miterlimit:4;stroke-dasharray:none"
       d="m 602.46351,1719.0367 73.82583,31.0366 0,91.7991 -73.82583,-31.0365 z"
       id="path3262"
       inkscape:connector-curvature="0"
       sodipodi:nodetypes="ccccc" />
    <path
       sodipodi:type="arc"
       style="fill:#002b36;stroke:#ffffff;stroke-width:3.58889889999999978;stroke-miterlimit:4;stroke-dasharray:none;fill-opacity:1"
       id="path3268"
       sodipodi:cx="-347.85715"
       sodipodi:cy="-139.20392"
       sodipodi:rx="25.714285"
       sodipodi:ry="25.714285"
       d="m -327.00584,-124.15575 c -7.2915,10.10338 -20.77727,13.52565 -32.00407,8.12165"
       transform="matrix(-0.84722221,-0.13498995,0,0.82475079,365.24634,1774.9967)"
       sodipodi:start="0.62513482"
       sodipodi:end="2.0194118"
       sodipodi:open="true" />
    <path
       transform="matrix(-0.74287028,0,0,0.88750575,859.74873,1655.1219)"
       d="m 289.28572,59.010368 a 3.9285717,3.9285717 0 1 1 -7.85714,0 3.9285717,3.9285717 0 1 1 7.85714,0 z"
       sodipodi:ry="3.9285717"
       sodipodi:rx="3.9285717"
       sodipodi:cy="59.010368"
       sodipodi:cx="285.35715"
       id="path3270"
       style="fill:#ffffff;stroke:#ffffff;stroke-width:3.6947;stroke-miterlimit:4;stroke-dasharray:none"
       sodipodi:type="arc" />
    <path
       sodipodi:type="arc"
       style="fill:#002b36;stroke:none"
       id="path3272"
       sodipodi:cx="285.35715"
       sodipodi:cy="59.010368"
       sodipodi:rx="3.9285717"
       sodipodi:ry="3.9285717"
       d="m 289.28572,59.010368 a 3.9285717,3.9285717 0 1 1 -7.85714,0 3.9285717,3.9285717 0 1 1 7.85714,0 z"
       transform="matrix(-0.5660936,0,0,0.5660936,809.2289,1675.6492)" />
    <path
       sodipodi:type="arc"
       style="fill:#ffffff;stroke:#ffffff;stroke-width:3.6295619;stroke-miterlimit:4;stroke-dasharray:none"
       id="path3274"
       sodipodi:cx="285.35715"
       sodipodi:cy="59.010368"
       sodipodi:rx="3.9285717"
       sodipodi:ry="3.9285717"
       d="m 289.28572,59.010368 a 3.9285717,3.9285717 0 1 1 -7.85714,0 3.9285717,3.9285717 0 1 1 7.85714,0 z"
       transform="matrix(-0.74287028,0,0,0.91964696,879.74873,1661.3669)" />
    <path
       transform="matrix(-0.5660936,0,0,0.5660936,828.8501,1683.7909)"
       d="m 289.28572,59.010368 a 3.9285717,3.9285717 0 1 1 -7.85714,0 3.9285717,3.9285717 0 1 1 7.85714,0 z"
       sodipodi:ry="3.9285717"
       sodipodi:rx="3.9285717"
       sodipodi:cy="59.010368"
       sodipodi:cx="285.35715"
       id="path3276"
       style="fill:#002b36;stroke:none;fill-opacity:1"
       sodipodi:type="arc" />
  </g>
</svg>
